<mxfile host="app.diagrams.net" modified="2023-09-08T07:33:43.865Z" agent="Mozilla/5.0 (Macintosh; Intel Mac OS X 10_15_7) AppleWebKit/537.36 (KHTML, like Gecko) Chrome/116.0.0.0 Safari/537.36" etag="4hq8rVXuer4QbiFrp80w" version="21.7.2" type="github">
  <diagram name="Page-1" id="RFbiFSDR9CMUTeOIauJK">
    <mxGraphModel dx="1306" dy="747" grid="1" gridSize="10" guides="1" tooltips="1" connect="1" arrows="1" fold="1" page="1" pageScale="1" pageWidth="827" pageHeight="1169" math="0" shadow="0">
      <root>
        <mxCell id="0" />
        <mxCell id="1" parent="0" />
        <mxCell id="mGIkJ9VYGgf8X-9DDkBL-7" value="" style="rounded=0;whiteSpace=wrap;html=1;" vertex="1" parent="1">
          <mxGeometry x="160" y="80" width="440" height="230" as="geometry" />
        </mxCell>
        <mxCell id="mGIkJ9VYGgf8X-9DDkBL-1" value="Door" style="rounded=0;whiteSpace=wrap;html=1;fillColor=#f5f5f5;strokeColor=#666666;fontColor=#333333;" vertex="1" parent="1">
          <mxGeometry x="160" y="80" width="120" height="230" as="geometry" />
        </mxCell>
        <mxCell id="mGIkJ9VYGgf8X-9DDkBL-2" value="Door" style="rounded=0;whiteSpace=wrap;html=1;fillColor=#f5f5f5;strokeColor=#666666;fontColor=#333333;" vertex="1" parent="1">
          <mxGeometry x="480" y="80" width="120" height="230" as="geometry" />
        </mxCell>
        <mxCell id="mGIkJ9VYGgf8X-9DDkBL-3" value="" style="rounded=0;whiteSpace=wrap;html=1;" vertex="1" parent="1">
          <mxGeometry x="340" y="80" width="80" height="220" as="geometry" />
        </mxCell>
        <mxCell id="mGIkJ9VYGgf8X-9DDkBL-4" value="" style="rounded=0;whiteSpace=wrap;html=1;" vertex="1" parent="1">
          <mxGeometry x="300" y="300" width="160" height="10" as="geometry" />
        </mxCell>
        <mxCell id="mGIkJ9VYGgf8X-9DDkBL-5" value="" style="rounded=0;whiteSpace=wrap;html=1;" vertex="1" parent="1">
          <mxGeometry x="160" y="300" width="120" height="10" as="geometry" />
        </mxCell>
        <mxCell id="mGIkJ9VYGgf8X-9DDkBL-6" value="" style="rounded=0;whiteSpace=wrap;html=1;" vertex="1" parent="1">
          <mxGeometry x="480" y="300" width="120" height="10" as="geometry" />
        </mxCell>
        <mxCell id="mGIkJ9VYGgf8X-9DDkBL-8" value="Hydralic" style="rounded=0;whiteSpace=wrap;html=1;fillColor=#f5f5f5;strokeColor=#666666;fontColor=#333333;" vertex="1" parent="1">
          <mxGeometry x="160" y="380" width="240" height="100" as="geometry" />
        </mxCell>
        <mxCell id="mGIkJ9VYGgf8X-9DDkBL-9" value="" style="rounded=0;whiteSpace=wrap;html=1;fillColor=#f5f5f5;strokeColor=#666666;fontColor=#333333;" vertex="1" parent="1">
          <mxGeometry x="160" y="480" width="240" height="100" as="geometry" />
        </mxCell>
        <mxCell id="mGIkJ9VYGgf8X-9DDkBL-10" value="Hydralic" style="rounded=0;whiteSpace=wrap;html=1;fillColor=#f5f5f5;strokeColor=#666666;fontColor=#333333;" vertex="1" parent="1">
          <mxGeometry x="400" y="380" width="240" height="100" as="geometry" />
        </mxCell>
        <mxCell id="mGIkJ9VYGgf8X-9DDkBL-11" value="" style="rounded=0;whiteSpace=wrap;html=1;fillColor=#f5f5f5;strokeColor=#666666;fontColor=#333333;" vertex="1" parent="1">
          <mxGeometry x="400" y="480" width="240" height="100" as="geometry" />
        </mxCell>
        <mxCell id="mGIkJ9VYGgf8X-9DDkBL-12" value="" style="rounded=0;whiteSpace=wrap;html=1;" vertex="1" parent="1">
          <mxGeometry x="160" y="570" width="240" height="10" as="geometry" />
        </mxCell>
        <mxCell id="mGIkJ9VYGgf8X-9DDkBL-15" value="" style="rounded=0;whiteSpace=wrap;html=1;" vertex="1" parent="1">
          <mxGeometry x="400" y="570" width="240" height="10" as="geometry" />
        </mxCell>
      </root>
    </mxGraphModel>
  </diagram>
</mxfile>
